<mxfile host="app.diagrams.net" agent="Mozilla/5.0 (Windows NT 10.0; Win64; x64) AppleWebKit/537.36 (KHTML, like Gecko) Chrome/127.0.0.0 Safari/537.36" version="24.7.6">
  <diagram name="Page-1" id="7FZMvqHeIF7b9mxZ489W">
    <mxGraphModel dx="1050" dy="522" grid="1" gridSize="10" guides="1" tooltips="1" connect="1" arrows="1" fold="1" page="1" pageScale="1" pageWidth="850" pageHeight="1100" math="0" shadow="0">
      <root>
        <mxCell id="0" />
        <mxCell id="1" parent="0" />
        <mxCell id="-MbyYuFJOytPRvi4rKHy-1" value="API Gateway" style="rounded=0;whiteSpace=wrap;html=1;labelBackgroundColor=none;fillColor=#d5e8d4;strokeColor=#82b366;" parent="1" vertex="1">
          <mxGeometry x="340" y="40" width="120" height="60" as="geometry" />
        </mxCell>
        <mxCell id="GZ-_-aIjXuv4mVbUdY5m-3" style="edgeStyle=orthogonalEdgeStyle;rounded=0;orthogonalLoop=1;jettySize=auto;html=1;labelBackgroundColor=none;strokeColor=#82b366;fontColor=default;fillColor=#d5e8d4;" parent="1" source="-MbyYuFJOytPRvi4rKHy-2" edge="1">
          <mxGeometry relative="1" as="geometry">
            <mxPoint x="107" y="320" as="targetPoint" />
          </mxGeometry>
        </mxCell>
        <mxCell id="-MbyYuFJOytPRvi4rKHy-2" value="User Management Service" style="rounded=0;whiteSpace=wrap;html=1;labelBackgroundColor=none;fillColor=#d5e8d4;strokeColor=#82b366;" parent="1" vertex="1">
          <mxGeometry x="47" y="190" width="120" height="60" as="geometry" />
        </mxCell>
        <mxCell id="GZ-_-aIjXuv4mVbUdY5m-1" value="" style="edgeStyle=orthogonalEdgeStyle;rounded=0;orthogonalLoop=1;jettySize=auto;html=1;labelBackgroundColor=none;strokeColor=#82b366;fontColor=default;fillColor=#d5e8d4;" parent="1" source="-MbyYuFJOytPRvi4rKHy-3" target="-MbyYuFJOytPRvi4rKHy-29" edge="1">
          <mxGeometry relative="1" as="geometry">
            <Array as="points">
              <mxPoint x="400" y="270" />
              <mxPoint x="400" y="270" />
            </Array>
          </mxGeometry>
        </mxCell>
        <mxCell id="-MbyYuFJOytPRvi4rKHy-3" value="Template Service" style="rounded=0;whiteSpace=wrap;html=1;labelBackgroundColor=none;fillColor=#d5e8d4;strokeColor=#82b366;" parent="1" vertex="1">
          <mxGeometry x="337" y="190" width="120" height="60" as="geometry" />
        </mxCell>
        <mxCell id="-MbyYuFJOytPRvi4rKHy-4" value="Email Service" style="rounded=0;whiteSpace=wrap;html=1;labelBackgroundColor=none;fillColor=#d5e8d4;strokeColor=#82b366;" parent="1" vertex="1">
          <mxGeometry x="688" y="190" width="120" height="60" as="geometry" />
        </mxCell>
        <mxCell id="-MbyYuFJOytPRvi4rKHy-7" value="" style="endArrow=none;html=1;rounded=0;exitX=0.5;exitY=1;exitDx=0;exitDy=0;labelBackgroundColor=none;strokeColor=#82b366;fontColor=default;fillColor=#d5e8d4;" parent="1" source="-MbyYuFJOytPRvi4rKHy-1" edge="1">
          <mxGeometry width="50" height="50" relative="1" as="geometry">
            <mxPoint x="400" y="340" as="sourcePoint" />
            <mxPoint x="400" y="160" as="targetPoint" />
          </mxGeometry>
        </mxCell>
        <mxCell id="-MbyYuFJOytPRvi4rKHy-8" value="" style="endArrow=none;html=1;rounded=0;labelBackgroundColor=none;strokeColor=#82b366;fontColor=default;fillColor=#d5e8d4;" parent="1" edge="1">
          <mxGeometry width="50" height="50" relative="1" as="geometry">
            <mxPoint x="80" y="160" as="sourcePoint" />
            <mxPoint x="400" y="160" as="targetPoint" />
          </mxGeometry>
        </mxCell>
        <mxCell id="-MbyYuFJOytPRvi4rKHy-9" value="" style="endArrow=none;html=1;rounded=0;labelBackgroundColor=none;strokeColor=#82b366;fontColor=default;fillColor=#d5e8d4;" parent="1" edge="1">
          <mxGeometry width="50" height="50" relative="1" as="geometry">
            <mxPoint x="400" y="160" as="sourcePoint" />
            <mxPoint x="760" y="160" as="targetPoint" />
          </mxGeometry>
        </mxCell>
        <mxCell id="-MbyYuFJOytPRvi4rKHy-11" value="" style="endArrow=classic;html=1;rounded=0;labelBackgroundColor=none;strokeColor=#82b366;fontColor=default;fillColor=#d5e8d4;" parent="1" edge="1">
          <mxGeometry width="50" height="50" relative="1" as="geometry">
            <mxPoint x="400" y="160" as="sourcePoint" />
            <mxPoint x="400" y="190" as="targetPoint" />
          </mxGeometry>
        </mxCell>
        <mxCell id="-MbyYuFJOytPRvi4rKHy-13" value="" style="endArrow=classic;html=1;rounded=0;labelBackgroundColor=none;strokeColor=#82b366;fontColor=default;fillColor=#d5e8d4;" parent="1" edge="1">
          <mxGeometry width="50" height="50" relative="1" as="geometry">
            <mxPoint x="759" y="160" as="sourcePoint" />
            <mxPoint x="759" y="190" as="targetPoint" />
          </mxGeometry>
        </mxCell>
        <mxCell id="-MbyYuFJOytPRvi4rKHy-14" value="Queue" style="verticalLabelPosition=bottom;html=1;verticalAlign=top;align=center;strokeColor=#82b366;fillColor=#d5e8d4;shape=mxgraph.azure.storage_queue;labelBackgroundColor=none;" parent="1" vertex="1">
          <mxGeometry x="505" y="330" width="50" height="45" as="geometry" />
        </mxCell>
        <mxCell id="-MbyYuFJOytPRvi4rKHy-15" style="edgeStyle=orthogonalEdgeStyle;rounded=0;orthogonalLoop=1;jettySize=auto;html=1;entryX=0.5;entryY=0;entryDx=0;entryDy=0;entryPerimeter=0;labelBackgroundColor=none;strokeColor=#82b366;fontColor=default;fillColor=#d5e8d4;" parent="1" source="-MbyYuFJOytPRvi4rKHy-4" target="-MbyYuFJOytPRvi4rKHy-14" edge="1">
          <mxGeometry relative="1" as="geometry" />
        </mxCell>
        <mxCell id="-MbyYuFJOytPRvi4rKHy-24" value="DB" style="shape=datastore;whiteSpace=wrap;html=1;labelBackgroundColor=none;fillColor=#d5e8d4;strokeColor=#82b366;" parent="1" vertex="1">
          <mxGeometry x="80" y="320" width="60" height="60" as="geometry" />
        </mxCell>
        <mxCell id="-MbyYuFJOytPRvi4rKHy-25" value="DB" style="shape=datastore;whiteSpace=wrap;html=1;labelBackgroundColor=none;fillColor=#d5e8d4;strokeColor=#82b366;" parent="1" vertex="1">
          <mxGeometry x="726" y="317" width="60" height="60" as="geometry" />
        </mxCell>
        <mxCell id="-MbyYuFJOytPRvi4rKHy-29" value="" style="sketch=0;points=[[0,0,0],[0.25,0,0],[0.5,0,0],[0.75,0,0],[1,0,0],[0,1,0],[0.25,1,0],[0.5,1,0],[0.75,1,0],[1,1,0],[0,0.25,0],[0,0.5,0],[0,0.75,0],[1,0.25,0],[1,0.5,0],[1,0.75,0]];outlineConnect=0;fillColor=#d5e8d4;strokeColor=#82b366;dashed=0;verticalLabelPosition=bottom;verticalAlign=top;align=center;html=1;fontSize=12;fontStyle=0;aspect=fixed;shape=mxgraph.aws4.resourceIcon;resIcon=mxgraph.aws4.documentdb_with_mongodb_compatibility;labelBackgroundColor=none;" parent="1" vertex="1">
          <mxGeometry x="365" y="313.5" width="78" height="78" as="geometry" />
        </mxCell>
        <mxCell id="GZ-_-aIjXuv4mVbUdY5m-4" style="edgeStyle=orthogonalEdgeStyle;rounded=0;orthogonalLoop=1;jettySize=auto;html=1;entryX=0.36;entryY=-0.003;entryDx=0;entryDy=0;entryPerimeter=0;labelBackgroundColor=none;strokeColor=#82b366;fontColor=default;fillColor=#d5e8d4;" parent="1" source="-MbyYuFJOytPRvi4rKHy-4" target="-MbyYuFJOytPRvi4rKHy-25" edge="1">
          <mxGeometry relative="1" as="geometry" />
        </mxCell>
        <mxCell id="GZ-_-aIjXuv4mVbUdY5m-5" value="" style="endArrow=classic;html=1;rounded=0;labelBackgroundColor=none;strokeColor=#82b366;fontColor=default;fillColor=#d5e8d4;" parent="1" edge="1">
          <mxGeometry width="50" height="50" relative="1" as="geometry">
            <mxPoint x="81" y="161" as="sourcePoint" />
            <mxPoint x="81" y="191" as="targetPoint" />
          </mxGeometry>
        </mxCell>
        <mxCell id="aB6L3KvNJ8qddhbMMvoQ-2" style="edgeStyle=orthogonalEdgeStyle;rounded=0;orthogonalLoop=1;jettySize=auto;html=1;entryX=1;entryY=0.5;entryDx=0;entryDy=0;labelBackgroundColor=none;strokeColor=#82b366;fontColor=default;fillColor=#d5e8d4;" edge="1" parent="1" source="aB6L3KvNJ8qddhbMMvoQ-1" target="-MbyYuFJOytPRvi4rKHy-4">
          <mxGeometry relative="1" as="geometry">
            <mxPoint x="840" y="220" as="targetPoint" />
          </mxGeometry>
        </mxCell>
        <mxCell id="aB6L3KvNJ8qddhbMMvoQ-3" style="edgeStyle=orthogonalEdgeStyle;rounded=0;orthogonalLoop=1;jettySize=auto;html=1;entryX=0;entryY=0.5;entryDx=0;entryDy=0;labelBackgroundColor=none;strokeColor=#82b366;fontColor=default;fillColor=#d5e8d4;" edge="1" parent="1" source="aB6L3KvNJ8qddhbMMvoQ-1" target="-MbyYuFJOytPRvi4rKHy-3">
          <mxGeometry relative="1" as="geometry">
            <mxPoint x="330" y="220" as="targetPoint" />
            <Array as="points">
              <mxPoint x="300" y="500" />
              <mxPoint x="300" y="220" />
            </Array>
          </mxGeometry>
        </mxCell>
        <mxCell id="aB6L3KvNJ8qddhbMMvoQ-1" value="CDN" style="image;aspect=fixed;html=1;points=[];align=center;fontSize=12;image=img/lib/azure2/networking/CDN_Profiles.svg;labelBackgroundColor=none;fillColor=#d5e8d4;strokeColor=#82b366;" vertex="1" parent="1">
          <mxGeometry x="590" y="480" width="68" height="40" as="geometry" />
        </mxCell>
      </root>
    </mxGraphModel>
  </diagram>
</mxfile>
